<mxfile host="Electron" modified="2024-01-02T08:42:06.041Z" agent="Mozilla/5.0 (Windows NT 10.0; Win64; x64) AppleWebKit/537.36 (KHTML, like Gecko) draw.io/21.6.1 Chrome/112.0.5615.204 Electron/24.6.1 Safari/537.36" etag="cjQPGQZQXqzuYfywaw3y" version="21.6.1" type="device">
  <diagram name="第 1 页" id="yDQHuePumBQZeDT4dOlb">
    <mxGraphModel dx="2445" dy="1033" grid="1" gridSize="10" guides="1" tooltips="1" connect="1" arrows="1" fold="1" page="1" pageScale="1" pageWidth="827" pageHeight="1169" math="0" shadow="0">
      <root>
        <mxCell id="0" />
        <mxCell id="1" parent="0" />
        <mxCell id="gR7gJ_BXb6Tm2btU3nYY-3" style="edgeStyle=none;curved=1;rounded=0;orthogonalLoop=1;jettySize=auto;html=1;fontSize=12;startSize=8;endSize=8;align=left;verticalAlign=top;" edge="1" parent="1" source="gR7gJ_BXb6Tm2btU3nYY-1" target="gR7gJ_BXb6Tm2btU3nYY-2">
          <mxGeometry relative="1" as="geometry" />
        </mxCell>
        <mxCell id="gR7gJ_BXb6Tm2btU3nYY-1" value="十分钟后我要削个苹果吃, 下午4点我要去健身, 两分钟后提醒我下, 这周六下午三点打羽毛球,下周二早上7点起做早餐,下周5下午3点半接孩子放学,十五分钟后" style="rounded=0;whiteSpace=wrap;html=1;fontSize=16;align=left;verticalAlign=top;" vertex="1" parent="1">
          <mxGeometry x="-630" y="30" width="480" height="80" as="geometry" />
        </mxCell>
        <mxCell id="gR7gJ_BXb6Tm2btU3nYY-4" style="edgeStyle=none;curved=1;rounded=0;orthogonalLoop=1;jettySize=auto;html=1;fontSize=12;startSize=8;endSize=8;entryX=0.5;entryY=0;entryDx=0;entryDy=0;align=left;verticalAlign=top;" edge="1" parent="1" source="gR7gJ_BXb6Tm2btU3nYY-2" target="gR7gJ_BXb6Tm2btU3nYY-5">
          <mxGeometry relative="1" as="geometry">
            <mxPoint x="-510" y="300" as="targetPoint" />
          </mxGeometry>
        </mxCell>
        <mxCell id="gR7gJ_BXb6Tm2btU3nYY-2" value="react -&amp;gt; 创建日程" style="shape=process;whiteSpace=wrap;html=1;backgroundOutline=1;fontSize=16;align=left;verticalAlign=top;" vertex="1" parent="1">
          <mxGeometry x="-520" y="140" width="260" height="40" as="geometry" />
        </mxCell>
        <mxCell id="gR7gJ_BXb6Tm2btU3nYY-8" value="" style="edgeStyle=none;curved=1;rounded=0;orthogonalLoop=1;jettySize=auto;html=1;fontSize=12;startSize=8;endSize=8;align=left;verticalAlign=top;" edge="1" parent="1" source="gR7gJ_BXb6Tm2btU3nYY-5" target="gR7gJ_BXb6Tm2btU3nYY-7">
          <mxGeometry relative="1" as="geometry" />
        </mxCell>
        <mxCell id="gR7gJ_BXb6Tm2btU3nYY-12" value="&amp;nbsp;正常的" style="edgeLabel;html=1;align=center;verticalAlign=middle;resizable=0;points=[];fontSize=16;" vertex="1" connectable="0" parent="gR7gJ_BXb6Tm2btU3nYY-8">
          <mxGeometry x="-0.0589" y="-4" relative="1" as="geometry">
            <mxPoint as="offset" />
          </mxGeometry>
        </mxCell>
        <mxCell id="gR7gJ_BXb6Tm2btU3nYY-9" style="edgeStyle=none;curved=1;rounded=0;orthogonalLoop=1;jettySize=auto;html=1;exitX=0.5;exitY=1;exitDx=0;exitDy=0;fontSize=12;startSize=8;endSize=8;entryX=0.5;entryY=0;entryDx=0;entryDy=0;" edge="1" parent="1" source="gR7gJ_BXb6Tm2btU3nYY-5" target="gR7gJ_BXb6Tm2btU3nYY-10">
          <mxGeometry relative="1" as="geometry">
            <mxPoint x="-240" y="290" as="targetPoint" />
            <Array as="points">
              <mxPoint x="-320" y="350" />
            </Array>
          </mxGeometry>
        </mxCell>
        <mxCell id="gR7gJ_BXb6Tm2btU3nYY-11" value="异常处理" style="edgeLabel;html=1;align=center;verticalAlign=middle;resizable=0;points=[];fontSize=16;" vertex="1" connectable="0" parent="gR7gJ_BXb6Tm2btU3nYY-9">
          <mxGeometry x="0.0657" y="-16" relative="1" as="geometry">
            <mxPoint x="8" y="-23" as="offset" />
          </mxGeometry>
        </mxCell>
        <mxCell id="gR7gJ_BXb6Tm2btU3nYY-5" value="提取事件-时间 pair" style="shape=process;whiteSpace=wrap;html=1;backgroundOutline=1;fontSize=16;align=left;verticalAlign=top;" vertex="1" parent="1">
          <mxGeometry x="-495" y="210" width="210" height="30" as="geometry" />
        </mxCell>
        <mxCell id="gR7gJ_BXb6Tm2btU3nYY-18" value="" style="edgeStyle=none;curved=1;rounded=0;orthogonalLoop=1;jettySize=auto;html=1;fontSize=12;startSize=8;endSize=8;" edge="1" parent="1" source="gR7gJ_BXb6Tm2btU3nYY-7" target="gR7gJ_BXb6Tm2btU3nYY-17">
          <mxGeometry relative="1" as="geometry" />
        </mxCell>
        <mxCell id="gR7gJ_BXb6Tm2btU3nYY-7" value="&lt;div&gt;[&lt;/div&gt;&lt;div&gt;&amp;nbsp; &amp;nbsp; (&#39;削个苹果吃&#39;, &#39;10分钟后&#39;),&amp;nbsp;&lt;/div&gt;&lt;div&gt;&amp;nbsp; &amp;nbsp; (&#39;健身&#39;, &#39;下午4点&#39;),&amp;nbsp;&lt;/div&gt;&lt;div&gt;&amp;nbsp; &amp;nbsp; (&#39;提醒&#39;, &#39;2分钟后&#39;),&amp;nbsp;&lt;/div&gt;&lt;div&gt;&amp;nbsp; &amp;nbsp; (&#39;打羽毛球&#39;, &#39;这周六下午三点&#39;),&amp;nbsp;&lt;/div&gt;&lt;div&gt;&amp;nbsp; &amp;nbsp; (&#39;做早餐&#39;, &#39;下周二早上7点&#39;),&amp;nbsp;&lt;/div&gt;&lt;div&gt;&amp;nbsp; &amp;nbsp; (&#39;接孩子放学&#39;, &#39;下周5下午3点半&#39;)&lt;/div&gt;&lt;div&gt;]&lt;/div&gt;" style="whiteSpace=wrap;html=1;fontSize=16;align=left;verticalAlign=top;" vertex="1" parent="1">
          <mxGeometry x="-660" y="280" width="250" height="170" as="geometry" />
        </mxCell>
        <mxCell id="gR7gJ_BXb6Tm2btU3nYY-14" style="edgeStyle=none;curved=1;rounded=0;orthogonalLoop=1;jettySize=auto;html=1;exitX=0.5;exitY=1;exitDx=0;exitDy=0;fontSize=12;startSize=8;endSize=8;entryX=0.5;entryY=0;entryDx=0;entryDy=0;" edge="1" parent="1" source="gR7gJ_BXb6Tm2btU3nYY-10" target="gR7gJ_BXb6Tm2btU3nYY-15">
          <mxGeometry relative="1" as="geometry">
            <mxPoint x="-420" y="610" as="targetPoint" />
          </mxGeometry>
        </mxCell>
        <mxCell id="gR7gJ_BXb6Tm2btU3nYY-10" value="&lt;div&gt;[&lt;/div&gt;&lt;div&gt;&lt;span style=&quot;white-space: pre;&quot;&gt;&amp;nbsp;&amp;nbsp;&amp;nbsp;&amp;nbsp;&lt;/span&gt;(None, &#39;十五分钟后&#39;)&lt;/div&gt;&lt;div&gt;]&lt;/div&gt;" style="rounded=0;whiteSpace=wrap;html=1;fontSize=16;align=left;verticalAlign=top;" vertex="1" parent="1">
          <mxGeometry x="-330" y="520" width="180" height="70" as="geometry" />
        </mxCell>
        <mxCell id="gR7gJ_BXb6Tm2btU3nYY-25" value="" style="edgeStyle=none;curved=1;rounded=0;orthogonalLoop=1;jettySize=auto;html=1;fontSize=12;startSize=8;endSize=8;" edge="1" parent="1" source="gR7gJ_BXb6Tm2btU3nYY-15" target="gR7gJ_BXb6Tm2btU3nYY-24">
          <mxGeometry relative="1" as="geometry" />
        </mxCell>
        <mxCell id="gR7gJ_BXb6Tm2btU3nYY-15" value="组装聊天返回结果,根据上个结果对任务排序" style="shape=process;whiteSpace=wrap;html=1;backgroundOutline=1;fontSize=16;align=left;verticalAlign=top;" vertex="1" parent="1">
          <mxGeometry x="-450" y="780" width="250" height="60" as="geometry" />
        </mxCell>
        <mxCell id="gR7gJ_BXb6Tm2btU3nYY-20" value="" style="edgeStyle=none;curved=1;rounded=0;orthogonalLoop=1;jettySize=auto;html=1;fontSize=12;startSize=8;endSize=8;" edge="1" parent="1" source="gR7gJ_BXb6Tm2btU3nYY-17" target="gR7gJ_BXb6Tm2btU3nYY-19">
          <mxGeometry relative="1" as="geometry" />
        </mxCell>
        <mxCell id="gR7gJ_BXb6Tm2btU3nYY-17" value="每个pair根据当前事件解析时间提醒时间" style="shape=process;whiteSpace=wrap;html=1;backgroundOutline=1;fontSize=16;align=left;verticalAlign=top;" vertex="1" parent="1">
          <mxGeometry x="-685" y="490" width="300" height="50" as="geometry" />
        </mxCell>
        <mxCell id="gR7gJ_BXb6Tm2btU3nYY-21" style="edgeStyle=none;curved=1;rounded=0;orthogonalLoop=1;jettySize=auto;html=1;fontSize=12;startSize=8;endSize=8;" edge="1" parent="1" source="gR7gJ_BXb6Tm2btU3nYY-19" target="gR7gJ_BXb6Tm2btU3nYY-15">
          <mxGeometry relative="1" as="geometry" />
        </mxCell>
        <mxCell id="gR7gJ_BXb6Tm2btU3nYY-19" value="&lt;div&gt;[&lt;/div&gt;&lt;div&gt;&lt;span style=&quot;white-space: pre;&quot;&gt;&amp;nbsp;&amp;nbsp;&amp;nbsp;&amp;nbsp;&lt;/span&gt;(&#39;削个苹果吃&#39;, &#39;2024-01-02 16:23:4&#39;),&amp;nbsp;&lt;/div&gt;&lt;div&gt;&lt;span style=&quot;&quot;&gt;&lt;span style=&quot;white-space: pre;&quot;&gt;&amp;nbsp;&amp;nbsp;&amp;nbsp;&amp;nbsp;&lt;/span&gt;&lt;/span&gt;(&#39;健身&#39;, &#39;2024-01-02 16:00:0&#39;),&amp;nbsp;&lt;/div&gt;&lt;div&gt;&lt;span style=&quot;&quot;&gt;&lt;span style=&quot;white-space: pre;&quot;&gt;&amp;nbsp;&amp;nbsp;&amp;nbsp;&amp;nbsp;&lt;/span&gt;&lt;/span&gt;(&#39;提醒我下&#39;, &#39;2024-01-02 16:15:4&#39;),&amp;nbsp;&lt;/div&gt;&lt;div&gt;&lt;span style=&quot;&quot;&gt;&lt;span style=&quot;white-space: pre;&quot;&gt;&amp;nbsp;&amp;nbsp;&amp;nbsp;&amp;nbsp;&lt;/span&gt;&lt;/span&gt;(&#39;打羽毛球&#39;, &#39;2024-01-06 15:00:0&#39;),&amp;nbsp;&lt;/div&gt;&lt;div&gt;&lt;span style=&quot;&quot;&gt;&lt;span style=&quot;white-space: pre;&quot;&gt;&amp;nbsp;&amp;nbsp;&amp;nbsp;&amp;nbsp;&lt;/span&gt;&lt;/span&gt;(&#39;做早餐&#39;, &#39;2024-01-09 07:00:0&#39;),&amp;nbsp;&lt;/div&gt;&lt;div&gt;&lt;span style=&quot;&quot;&gt;&lt;span style=&quot;white-space: pre;&quot;&gt;&amp;nbsp;&amp;nbsp;&amp;nbsp;&amp;nbsp;&lt;/span&gt;&lt;/span&gt;(&#39;接孩子放学&#39;, &#39;2024-01-05 15:30:0&#39;),&amp;nbsp;&lt;/div&gt;&lt;div&gt;&lt;span style=&quot;&quot;&gt;&lt;span style=&quot;white-space: pre;&quot;&gt;&amp;nbsp;&amp;nbsp;&amp;nbsp;&amp;nbsp;&lt;/span&gt;&lt;/span&gt;(&#39;十五分钟后&#39;, &#39;2024-01-02 16:13:5&#39;)&lt;/div&gt;&lt;div&gt;]&lt;/div&gt;" style="whiteSpace=wrap;html=1;fontSize=16;align=left;verticalAlign=top;" vertex="1" parent="1">
          <mxGeometry x="-705" y="565" width="340" height="180" as="geometry" />
        </mxCell>
        <mxCell id="gR7gJ_BXb6Tm2btU3nYY-24" value="&lt;p style=&quot;font-size: 14px;&quot;&gt;已为您创建日程提醒，2分钟后会提醒您10分钟后提醒您削个苹果吃，&lt;br&gt;&lt;span style=&quot;font-size: 14px;&quot;&gt;下午4点将会提醒您健身，这周六下午三点提醒您打羽毛球，下周二早上7点提醒您做早餐，下周五下午3点半提醒您接孩子放学，&lt;br&gt;&lt;/span&gt;&lt;span style=&quot;font-size: 14px;&quot;&gt;请问您十五分钟后要做什么?&lt;/span&gt;&lt;/p&gt;" style="whiteSpace=wrap;html=1;fontSize=16;align=left;verticalAlign=top;horizontal=1;" vertex="1" parent="1">
          <mxGeometry x="-540" y="880" width="430" height="110" as="geometry" />
        </mxCell>
      </root>
    </mxGraphModel>
  </diagram>
</mxfile>
